<?xml version="1.0" encoding="UTF-8"?>
<svg width="10mm" height="10mm" version="1.1" viewBox="0 0 10 10" xmlns="http://www.w3.org/2000/svg" xmlns:cc="http://creativecommons.org/ns#" xmlns:dc="http://purl.org/dc/elements/1.1/" xmlns:rdf="http://www.w3.org/1999/02/22-rdf-syntax-ns#">
<g transform="translate(0,-287)" display="none">
<rect x="14.363" y="100.45" width="177.65" height="117.17" stroke-width=".26458"/>
</g>
<g transform="translate(0,-287)">
<g transform="translate(-72.258 143.17)" stroke-width=".26458">
<circle cx="77.258" cy="148.83" r="4.4979" fill="#fff" fill-rule="evenodd"/>
<path d="m78.861 146.95h-3.2411c-0.19844 0-0.3638 0.16536-0.3638 0.3638v3.2411c0 0.19844 0.16536 0.36381 0.3638 0.36381h3.2411c0.19844 0 0.3638-0.16537 0.3638-0.36381v-3.2411c0-0.19844-0.16536-0.3638-0.3638-0.3638zm-2.4474 3.3073h-0.66146v-1.819h0.66146zm-0.33073-2.0341c-0.19844 0-0.33073-0.13229-0.33073-0.29765 0-0.18177 0.13229-0.31407 0.33073-0.31407 0.19844 0 0.33073 0.1323 0.33073 0.29766 0 0.18177-0.13229 0.31406-0.33073 0.31406zm2.6458 2.0341h-0.66146v-0.99219c0-0.26485-0.18203-0.33073-0.23125-0.33073-0.04974 0-0.26485 0.0331-0.26485 0.33073v0.99219h-0.66146v-1.819h0.66146v0.26485c0.09948-0.14923 0.26485-0.26485 0.57891-0.26485 0.3138 0 0.57864 0.24818 0.57864 0.82682z"/>
</g>
</g>
<g transform="translate(0,-287)" display="none">
<g transform="matrix(.26458 0 0 .26458 .50208 287.5)" fill-rule="evenodd">
<circle cx="17" cy="17" r="17" fill="#fff"/>
<g transform="translate(8.5,8.5)" fill="#141414" fill-rule="nonzero">
<path d="m11.688 0h-6.377c-2.931 0-5.311 2.379-5.311 5.313v6.375c0 2.932 2.379 5.312 5.313 5.312h6.375c2.932 0 5.312-2.379 5.312-5.313v-6.373c0-2.936-2.379-5.314-5.313-5.314zm3.718 11.688c0 2.05-1.668 3.718-3.719 3.718h-6.373c-2.051 0-3.72-1.668-3.72-3.719v-6.373c0-2.051 1.669-3.72 3.72-3.72h6.375c2.05 0 3.718 1.669 3.718 3.72v6.375z"/>
<path d="m8.5 4.25c-2.347 0-4.25 1.903-4.25 4.25s1.903 4.25 4.25 4.25 4.25-1.903 4.25-4.25-1.903-4.25-4.25-4.25zm0 6.906c-1.464 0-2.656-1.192-2.656-2.656 0-1.465 1.192-2.656 2.656-2.656s2.656 1.19 2.656 2.656c0 1.464-1.192 2.656-2.656 2.656z"/>
<circle cx="13.104" cy="3.896" r="1.063"/>
</g>
</g>
</g>
<g transform="translate(0,-287)" display="none">
<g transform="translate(-100.83 143.17)" stroke-width=".26458">
<circle cx="105.83" cy="148.83" r="4.4979" fill="#fff" fill-rule="evenodd"/>
<path d="m108.22 148.43c0.0106-0.31829-0.0572-0.6342-0.19685-0.91837-0.095-0.11668-0.22675-0.19526-0.37227-0.22225-0.60193-0.0564-1.2065-0.0794-1.8105-0.0691-0.60219-0.0106-1.2046 0.0116-1.8045 0.0667-0.11853 0.0222-0.22834 0.0794-0.31591 0.16457-0.19447 0.18442-0.21617 0.50007-0.23786 0.76729-0.0315 0.47943-0.0315 0.96097 0 1.4407 6e-3 0.15028 0.0281 0.29924 0.0648 0.4445 0.0262 0.11245 0.0789 0.21643 0.15345 0.30268 0.0884 0.0897 0.20056 0.15002 0.3228 0.17331 0.46619 0.0593 0.93609 0.0839 1.406 0.0736 0.75724 0.0111 1.4213 0 2.2066-0.0624 0.12488-0.0217 0.2405-0.0823 0.33099-0.1733 0.0609-0.0624 0.10583-0.13865 0.13203-0.22225 0.0773-0.24421 0.11536-0.49954 0.11244-0.75618 9e-3 -0.12436 9e-3 -0.87604 9e-3 -1.0094zm-2.8686 1.143v-1.3769l1.2806 0.69162c-0.35904 0.20452-0.83291 0.43577-1.2806 0.68474z"/>
</g>
</g>
<g transform="translate(0,-287)" display="none">
<g transform="matrix(.26458 0 0 .26458 .50208 287.5)" fill-rule="evenodd">
<circle cx="17" cy="17" r="17" fill="#fff"/>
<path d="m24.792 12.134c-0.574 0.256-1.19 0.43-1.837 0.507 0.66-0.399 1.167-1.029 1.406-1.78-0.617 0.368-1.302 0.636-2.03 0.78-0.583-0.625-1.414-1.016-2.334-1.016-1.766 0-3.197 1.441-3.197 3.219 0 0.252 0.028 0.498 0.083 0.733-2.657-0.134-5.013-1.415-6.59-3.363-0.275 0.475-0.433 1.028-0.433 1.618 0 1.117 0.565 2.102 1.422 2.68-0.524-0.017-1.017-0.162-1.448-0.404v0.041c0 1.56 1.102 2.86 2.565 3.156-0.268 0.074-0.551 0.113-0.842 0.113-0.207 0-0.407-0.02-0.602-0.057 0.407 1.278 1.587 2.209 2.987 2.235-1.095 0.863-2.473 1.378-3.971 1.378-0.258 0-0.513-0.015-0.763-0.045 1.414 0.913 3.095 1.446 4.9 1.446 5.881 0 9.097-4.905 9.097-9.158 0-0.14-3e-3 -0.279-9e-3 -0.417 0.625-0.453 1.167-1.02 1.596-1.666z" fill="#141414" fill-rule="nonzero"/>
</g>
</g>
<g transform="translate(0,-287)" display="none">
<g transform="matrix(.26458 0 0 .26458 .50208 287.5)" fill-rule="evenodd">
<circle cx="17" cy="17" r="17" fill="#fff"/>
<path d="m20.783 9.212-1.999-4e-3c-2.246 0-3.697 1.492-3.697 3.8v1.753h-2.01c-0.174 0-0.315 0.141-0.315 0.315v2.539c0 0.174 0.141 0.315 0.315 0.315h2.01v6.406c0 0.174 0.14 0.315 0.314 0.315h2.623c0.173 0 0.314-0.141 0.314-0.315v-6.406h2.35c0.174 0 0.314-0.141 0.314-0.315l1e-3 -2.539c0-0.084-0.033-0.164-0.092-0.223s-0.139-0.092-0.222-0.092h-2.351v-1.485c0-0.714 0.17-1.077 1.098-1.077h1.347c0.173 0 0.314-0.141 0.314-0.315v-2.358c0-0.173-0.14-0.314-0.314-0.314z" fill="#141414" fill-rule="nonzero"/>
</g>
</g>
</svg>
